<svg xmlns="http://www.w3.org/2000/svg" xmlns:xlink="http://www.w3.org/1999/xlink" width="281" height="77" viewBox="0 0 281 77">
  <defs>
    <clipPath id="clip-new-logo-white-green">
      <rect width="281" height="77"/>
    </clipPath>
  </defs>
  <g id="new-logo-white-green" clip-path="url(#clip-new-logo-white-green)">
    <text id="Trade" transform="translate(76 32)" fill="#fff" font-size="32" font-family="SegoeUI-Bold, Segoe UI" font-weight="700" letter-spacing="0.022em"><tspan x="0" y="0">Trade</tspan></text>
    <text id="Capital_Partners" data-name="Capital Partners" transform="translate(77 65)" fill="#fff" font-size="28" font-family="SegoeUI, Segoe UI" letter-spacing="0.01em"><tspan x="0" y="0">Capital Partners</tspan></text>
    <g id="Group_329" data-name="Group 329" transform="translate(-6.907 2.727)">
      <path id="Path_4148" data-name="Path 4148" d="M-16119.137-9195.277s5.666,10.07,9.189,15.986,8.309,6.42,8.309,6.42h14.348" transform="translate(16159.055 9195.277)" fill="none" stroke="#03c2a9" stroke-linecap="round" stroke-width="4"/>
      <path id="Path_4149" data-name="Path 4149" d="M-16120.22-9195.532s4.783,9.244,8.393,14.8c1.848,2.847,5.357,6.408,8.984,7.052s21.393.44,21.393.44" transform="translate(16156.357 9202.677)" fill="none" stroke="#03c2a9" stroke-linecap="round" stroke-width="4"/>
      <path id="Path_4150" data-name="Path 4150" d="M-16119.554-9194.283s5.813,9.906,7.973,13.406,11.4,7.929,15.027,8.571" transform="translate(16151.699 9208.485)" fill="none" stroke="#03c2a9" stroke-linecap="round" stroke-width="4"/>
      <path id="Path_4151" data-name="Path 4151" d="M-16164.549-9000.46s6.926-12.141,8.713-16.5-.893-14.15-.893-14.15" transform="translate(16196.694 9058.868)" fill="none" stroke="#03c2a9" stroke-linecap="round" stroke-width="4"/>
      <path id="Path_4152" data-name="Path 4152" d="M-16206.922-8984.771s6.107-10.8,9.758-15.046c2.31-2.687,8.667-6.105,13.736-6s23.743,0,23.743,0" transform="translate(16239.588 9042.101)" fill="none" stroke="#03c2a9" stroke-linecap="round" stroke-width="4"/>
      <path id="Path_4153" data-name="Path 4153" d="M0,0A96.846,96.846,0,0,0,5.715,11.216c3.524,5.916,12.64,5.187,12.64,5.187l15.076.8" transform="matrix(-0.454, 0.891, -0.891, -0.454, 70.63, 49.895)" fill="none" stroke="#03c2a9" stroke-linecap="round" stroke-width="4"/>
      <path id="Path_4154" data-name="Path 4154" d="M0,0S4.828,10.476,8.352,16.392s11.864,6.452,11.864,6.452l16.653,1.1" transform="matrix(-0.454, 0.891, -0.891, -0.454, 74.213, 43.221)" fill="none" stroke="#03c2a9" stroke-linecap="round" stroke-width="4"/>
      <path id="Path_4155" data-name="Path 4155" d="M0,0S6.112,8.4,10.149,13.373s7.831,6.455,12.206,6.389S40.418,18,40.418,18" transform="matrix(-0.407, -0.914, 0.914, -0.407, 24.294, 58.408)" fill="none" stroke="#03c2a9" stroke-linecap="round" stroke-width="4"/>
      <path id="Path_4156" data-name="Path 4156" d="M0,0S6.021,8.616,10.058,13.594s5.1,6.4,9.473,6.338,20.8-1.972,20.8-1.972" transform="matrix(-0.407, -0.914, 0.914, -0.407, 16.406, 58.222)" fill="none" stroke="#03c2a9" stroke-linecap="round" stroke-width="4"/>
    </g>
  </g>
</svg>
